<svg version="1.1" id="Layer_1" xmlns="http://www.w3.org/2000/svg" xmlns:xlink="http://www.w3.org/1999/xlink" x="0px" y="0px"
	 width="100%" viewBox="0 0 145 114" enable-background="new 0 0 145 114" xml:space="preserve">
<path fill="#E8E8D5" opacity="1.000000" stroke="none" 
	d="
M103.000000,115.000000 
	C68.666664,115.000000 34.833332,115.000000 1.000000,115.000000 
	C1.000000,77.000000 1.000000,39.000000 1.000000,1.000000 
	C49.333332,1.000000 97.666664,1.000000 146.000000,1.000000 
	C146.000000,39.000000 146.000000,77.000000 146.000000,115.000000 
	C131.833328,115.000000 117.666664,115.000000 103.000000,115.000000 
M106.357910,27.245131 
	C98.735992,27.829788 91.113525,28.407324 83.492462,29.002920 
	C80.782166,29.214735 78.951645,30.185440 81.294304,32.966469 
	C84.701752,37.011532 84.485451,41.469589 83.434509,46.161949 
	C81.729706,53.773762 79.994011,61.379658 78.397438,69.014420 
	C76.886757,76.238495 75.538338,83.496498 73.876404,91.974930 
	C79.669769,91.254982 84.266090,90.947922 88.714890,89.969879 
	C90.048294,89.676727 91.607231,87.664276 91.964935,86.175667 
	C93.204163,81.018600 93.753174,75.693451 95.043976,70.552559 
	C95.370682,69.251427 97.339188,67.781982 98.791656,67.457726 
	C102.491287,66.631821 106.433502,66.821960 110.085609,65.867142 
	C120.668114,63.100449 127.914772,51.989487 126.649132,41.033581 
	C125.619896,32.124084 120.162247,28.240925 106.357910,27.245131 
M65.158432,61.777752 
	C66.248749,53.219326 67.339073,44.660904 68.426605,36.124325 
	C77.211510,34.638313 77.900391,33.808834 75.747971,27.998587 
	C63.870583,27.998587 52.160358,27.998587 39.898880,27.998587 
	C40.489597,31.092518 40.937988,33.440983 41.366089,35.683205 
	C44.806892,35.417622 47.690269,35.195061 51.032021,34.937122 
	C50.297222,49.515480 49.446186,63.419403 45.220093,76.836807 
	C43.429661,82.521233 41.150253,83.318069 35.864388,80.925621 
	C34.993721,80.531548 34.144112,80.090942 32.964622,79.515709 
	C31.878660,81.169052 30.949677,82.583397 29.942284,84.117119 
	C31.733379,85.593376 33.053959,86.871246 34.552303,87.886871 
	C46.717899,96.133080 57.783508,92.335930 61.926102,78.260590 
	C63.418896,73.188515 64.045715,67.861580 65.158432,61.777752 
z"/>
<path fill="#0C2E4D" opacity="1.000000" stroke="none" 
	d="
M106.816025,27.246639 
	C120.162247,28.240925 125.619896,32.124084 126.649132,41.033581 
	C127.914772,51.989487 120.668114,63.100449 110.085609,65.867142 
	C106.433502,66.821960 102.491287,66.631821 98.791656,67.457726 
	C97.339188,67.781982 95.370682,69.251427 95.043976,70.552559 
	C93.753174,75.693451 93.204163,81.018600 91.964935,86.175667 
	C91.607231,87.664276 90.048294,89.676727 88.714890,89.969879 
	C84.266090,90.947922 79.669769,91.254982 73.876404,91.974930 
	C75.538338,83.496498 76.886757,76.238495 78.397438,69.014420 
	C79.994011,61.379658 81.729706,53.773762 83.434509,46.161949 
	C84.485451,41.469589 84.701752,37.011532 81.294304,32.966469 
	C78.951645,30.185440 80.782166,29.214735 83.492462,29.002920 
	C91.113525,28.407324 98.735992,27.829788 106.816025,27.246639 
M99.197197,50.768562 
	C98.684647,53.621380 98.172096,56.474194 97.621574,59.538315 
	C102.439568,59.878029 105.442230,57.632874 106.534386,54.026005 
	C107.994316,49.204567 108.920029,44.103199 109.191185,39.074379 
	C109.444382,34.378780 107.538445,33.401566 102.521942,34.481453 
	C101.488258,39.628723 100.452110,44.788235 99.197197,50.768562 
z"/>
<path fill="#0D2F4D" opacity="1.000000" stroke="none" 
	d="
M65.113083,62.214348 
	C64.045715,67.861580 63.418896,73.188515 61.926102,78.260590 
	C57.783508,92.335930 46.717899,96.133080 34.552303,87.886871 
	C33.053959,86.871246 31.733379,85.593376 29.942284,84.117119 
	C30.949677,82.583397 31.878660,81.169052 32.964622,79.515709 
	C34.144112,80.090942 34.993721,80.531548 35.864388,80.925621 
	C41.150253,83.318069 43.429661,82.521233 45.220093,76.836807 
	C49.446186,63.419403 50.297222,49.515480 51.032021,34.937122 
	C47.690269,35.195061 44.806892,35.417622 41.366089,35.683205 
	C40.937988,33.440983 40.489597,31.092518 39.898880,27.998587 
	C52.160358,27.998587 63.870583,27.998587 75.747971,27.998587 
	C77.900391,33.808834 77.211510,34.638313 68.426605,36.124325 
	C67.339073,44.660904 66.248749,53.219326 65.113083,62.214348 
z"/>
<path fill="#E2E3D1" opacity="1.000000" stroke="none" 
	d="
M99.306580,50.358154 
	C100.452110,44.788235 101.488258,39.628723 102.521942,34.481453 
	C107.538445,33.401566 109.444382,34.378780 109.191185,39.074379 
	C108.920029,44.103199 107.994316,49.204567 106.534386,54.026005 
	C105.442230,57.632874 102.439568,59.878029 97.621574,59.538315 
	C98.172096,56.474194 98.684647,53.621380 99.306580,50.358154 
z"/>
</svg>